<svg width="840" height="705" viewBox="0 0 840 705" fill="none" xmlns="http://www.w3.org/2000/svg">
<g clip-path="url(#clip0_1_1386)">
<path d="M546.814 696.724L389.458 412.979C389.413 412.284 389.198 411.612 388.832 411.02C388.466 410.429 387.959 409.936 387.358 409.587C386.667 409.192 385.879 409.001 385.084 409.038C385.059 409.036 385.033 409.038 385.008 409.036C384.982 409.038 384.956 409.036 384.931 409.038C383.855 408.988 382.8 409.355 381.989 410.065C381.177 410.774 380.671 411.769 380.577 412.843L213.802 696.724C213.524 697.205 213.343 697.736 213.27 698.287C213.198 698.838 213.234 699.398 213.378 699.934C213.521 700.471 213.769 700.975 214.107 701.415C214.446 701.856 214.867 702.226 215.349 702.504C215.83 702.782 216.361 702.962 216.912 703.035C217.463 703.107 218.023 703.071 218.559 702.927C219.096 702.783 219.599 702.534 220.04 702.196C220.48 701.857 220.85 701.435 221.127 700.954L384.895 422.192L539.489 700.954C539.766 701.435 540.136 701.857 540.577 702.196C541.017 702.534 541.52 702.783 542.057 702.927C542.594 703.071 543.153 703.107 543.704 703.035C544.255 702.962 544.786 702.782 545.268 702.504C545.749 702.226 546.17 701.856 546.509 701.415C546.847 700.975 547.095 700.471 547.238 699.934C547.382 699.398 547.419 698.838 547.346 698.287C547.273 697.736 547.093 697.205 546.814 696.724Z" fill="#3F3D56"/>
<path d="M358.933 648.041L376.72 643.959L369.444 573.405L343.193 579.428L358.933 648.041Z" fill="#FFB6B6"/>
<path d="M372.685 613.957L347.373 619.764L339.28 603.946L338.821 603.385C335.231 598.978 333.238 593.485 333.168 587.8L312.129 532.142L310.409 531.324C309.078 530.691 307.898 529.781 306.947 528.656C305.995 527.53 305.295 526.214 304.893 524.797C304.49 523.379 304.395 521.891 304.613 520.434C304.831 518.976 305.358 517.582 306.158 516.344L303.931 510.452L241.085 510.567L241.022 510.55L163.848 488.899L171.952 440.588L193.66 454.245C200.814 453.781 323.353 446.256 334.673 473.722C344.754 498.18 359.28 539.965 369.692 570.711C370.211 572.092 370.856 573.421 371.619 574.683C373.239 577.178 374.19 580.048 374.38 583.017C374.503 584.308 374.749 585.585 375.115 586.829C379.442 599.767 372.85 613.616 372.783 613.754L372.685 613.957Z" fill="#2F2E41"/>
<path d="M352.925 642.142L358.708 640.815L379.178 626.452L393.385 632.857L393.387 632.857C400.225 631.288 407.406 632.501 413.351 636.227C419.296 639.954 423.517 645.89 425.086 652.729L425.278 653.567L359.033 668.768L352.925 642.142Z" fill="#2F2E41"/>
<path d="M90.3136 643.726C92.122 624.04 103.652 604.331 122.144 597.35C115.418 617.768 116.131 639.908 124.156 659.851C127.278 667.531 131.551 675.748 129.1 683.668C127.575 688.597 123.582 692.458 119.058 694.937C114.535 697.417 109.468 698.692 104.463 699.943L103.498 700.795C94.9181 682.986 88.5053 663.412 90.3136 643.726Z" fill="#F0F0F0"/>
<path d="M122.341 597.714C111.845 610.266 105.569 625.806 104.407 642.127C104.094 645.637 104.336 649.173 105.125 652.607C106.001 655.927 107.75 658.952 110.19 661.367C112.42 663.665 114.967 665.757 116.6 668.557C117.415 670.003 117.914 671.604 118.067 673.256C118.219 674.909 118.02 676.575 117.484 678.145C116.248 682.092 113.668 685.36 111.034 688.468C108.11 691.919 105.018 695.457 103.872 699.944C103.733 700.487 102.897 700.24 103.036 699.697C105.03 691.89 112.396 687.256 115.753 680.174C117.319 676.87 117.899 673.073 116.223 669.692C114.757 666.735 112.132 664.576 109.854 662.269C107.439 659.947 105.629 657.07 104.582 653.888C103.621 650.505 103.243 646.984 103.464 643.474C103.834 635.566 105.446 627.764 108.239 620.356C111.381 611.884 115.948 604.012 121.744 597.08C122.103 596.651 122.698 597.288 122.341 597.714Z" fill="white"/>
<path d="M104.472 636.85C101.76 636.283 99.3384 634.77 97.6389 632.583C95.9393 630.395 95.0728 627.674 95.1939 624.906C95.1998 624.793 95.2494 624.687 95.332 624.61C95.4147 624.533 95.524 624.491 95.637 624.493C95.7499 624.495 95.8577 624.541 95.9376 624.621C96.0174 624.701 96.0632 624.809 96.0651 624.922C95.9476 627.499 96.7551 630.033 98.3418 632.067C99.9286 634.101 102.19 635.501 104.718 636.014C105.267 636.126 105.018 636.961 104.472 636.85Z" fill="white"/>
<path d="M108.906 660.351C113.672 657.293 117.111 652.55 118.536 647.069C118.677 646.526 119.513 646.773 119.372 647.316C117.878 653.017 114.289 657.945 109.323 661.116C108.849 661.418 108.435 660.651 108.906 660.351Z" fill="white"/>
<path d="M112.215 612.683C113.219 613.121 114.315 613.303 115.406 613.212C116.497 613.122 117.549 612.761 118.466 612.164C118.936 611.856 119.349 612.623 118.883 612.929C117.866 613.584 116.704 613.981 115.499 614.084C114.294 614.186 113.082 613.992 111.969 613.519C111.86 613.483 111.769 613.407 111.714 613.306C111.66 613.206 111.645 613.088 111.674 612.977C111.707 612.867 111.783 612.774 111.884 612.719C111.985 612.664 112.104 612.651 112.215 612.683Z" fill="white"/>
<path d="M180.26 630.54C179.972 630.74 179.684 630.941 179.396 631.149C175.542 633.865 171.914 636.89 168.55 640.193C168.286 640.445 168.022 640.703 167.765 640.962C159.744 649.007 153.286 658.473 148.719 668.876C146.906 673.018 145.41 677.291 144.245 681.66C142.636 687.693 141.372 694.362 137.965 699.364C137.615 699.89 137.233 700.394 136.822 700.872L104.612 701.907C104.538 701.873 104.464 701.846 104.389 701.811L103.105 701.911C103.149 701.682 103.2 701.445 103.244 701.215C103.269 701.082 103.302 700.949 103.327 700.815C103.346 700.727 103.365 700.638 103.378 700.556C103.384 700.527 103.39 700.497 103.397 700.475C103.409 700.393 103.429 700.319 103.441 700.245C103.722 698.919 104.013 697.593 104.314 696.266C104.314 696.259 104.314 696.259 104.321 696.251C106.515 686.121 109.903 676.287 114.414 666.954C114.552 666.678 114.69 666.394 114.843 666.117C116.938 661.983 119.367 658.027 122.107 654.288C123.613 652.246 125.222 650.282 126.927 648.402C131.342 643.555 136.492 639.432 142.189 636.185C153.545 629.713 166.844 626.946 179.31 630.276C179.629 630.362 179.941 630.447 180.26 630.54Z" fill="#F0F0F0"/>
<path d="M180.2 630.951C164.264 634.652 149.898 643.282 139.145 655.613C136.782 658.227 134.847 661.197 133.409 664.413C132.11 667.591 131.686 671.06 132.18 674.458C132.578 677.635 133.352 680.839 132.97 684.058C132.75 685.703 132.185 687.283 131.312 688.694C130.439 690.105 129.277 691.315 127.904 692.246C124.541 694.653 120.514 695.709 116.54 696.605C112.128 697.599 107.529 698.562 103.913 701.454C103.474 701.805 102.956 701.104 103.394 700.754C109.686 695.722 118.357 696.457 125.3 692.824C128.54 691.128 131.289 688.446 131.985 684.737C132.595 681.494 131.799 678.189 131.369 674.975C130.838 671.667 131.125 668.28 132.205 665.109C133.474 661.829 135.292 658.79 137.581 656.121C142.638 650.029 148.621 644.771 155.311 640.538C162.919 635.665 171.305 632.13 180.106 630.085C180.65 629.959 180.742 630.826 180.2 630.951Z" fill="white"/>
<path d="M142.374 651.438C140.55 649.353 139.527 646.687 139.487 643.917C139.447 641.147 140.393 638.453 142.156 636.316C142.514 635.884 143.201 636.421 142.842 636.853C141.197 638.84 140.316 641.349 140.358 643.929C140.401 646.508 141.364 648.988 143.073 650.92C143.444 651.34 142.742 651.856 142.374 651.438Z" fill="white"/>
<path d="M131.767 672.873C137.413 673.301 143.014 671.585 147.451 668.067C147.891 667.718 148.409 668.419 147.97 668.767C143.345 672.419 137.514 674.193 131.639 673.735C131.079 673.69 131.21 672.829 131.767 672.873Z" fill="white"/>
<path d="M163.104 636.806C163.642 637.759 164.408 638.565 165.334 639.15C166.259 639.734 167.316 640.08 168.408 640.155C168.968 640.192 168.837 641.054 168.28 641.017C167.074 640.928 165.907 640.545 164.883 639.901C163.859 639.258 163.008 638.373 162.404 637.324C162.339 637.23 162.312 637.115 162.329 637.002C162.346 636.889 162.405 636.786 162.495 636.715C162.588 636.647 162.704 636.618 162.818 636.635C162.932 636.652 163.035 636.713 163.104 636.806Z" fill="white"/>
<path d="M617.288 643.726C615.479 624.04 603.95 604.331 585.458 597.35C592.183 617.768 591.47 639.908 583.446 659.851C580.323 667.531 576.05 675.748 578.501 683.668C580.026 688.597 584.02 692.458 588.543 694.937C593.066 697.417 598.134 698.692 603.138 699.943L604.103 700.795C612.683 682.986 619.096 663.412 617.288 643.726Z" fill="#F0F0F0"/>
<path d="M585.26 597.714C595.756 610.266 602.032 625.806 603.195 642.127C603.507 645.637 603.265 649.173 602.477 652.607C601.6 655.927 599.851 658.952 597.411 661.367C595.181 663.665 592.634 665.757 591.001 668.557C590.186 670.003 589.687 671.604 589.535 673.256C589.382 674.909 589.581 676.575 590.118 678.145C591.353 682.092 593.933 685.36 596.567 688.468C599.491 691.919 602.583 695.457 603.73 699.944C603.868 700.487 604.704 700.24 604.565 699.697C602.571 691.89 595.205 687.256 591.848 680.174C590.282 676.87 589.702 673.073 591.378 669.692C592.844 666.735 595.469 664.576 597.747 662.269C600.162 659.947 601.973 657.07 603.019 653.888C603.98 650.505 604.358 646.984 604.138 643.474C603.767 635.566 602.155 627.764 599.362 620.356C596.22 611.884 591.653 604.012 585.857 597.08C585.498 596.651 584.904 597.288 585.26 597.714Z" fill="white"/>
<path d="M603.13 636.85C605.841 636.283 608.263 634.771 609.962 632.583C611.662 630.395 612.529 627.674 612.407 624.906C612.402 624.793 612.352 624.687 612.269 624.61C612.187 624.533 612.077 624.491 611.964 624.493C611.851 624.495 611.744 624.541 611.664 624.621C611.584 624.701 611.538 624.809 611.536 624.922C611.654 627.499 610.846 630.033 609.259 632.067C607.673 634.102 605.411 635.501 602.883 636.014C602.334 636.126 602.584 636.961 603.13 636.85Z" fill="white"/>
<path d="M598.695 660.351C593.929 657.293 590.49 652.55 589.065 647.069C588.924 646.526 588.088 646.773 588.229 647.316C589.723 653.017 593.312 657.945 598.278 661.116C598.752 661.418 599.166 660.651 598.695 660.351Z" fill="white"/>
<path d="M595.386 612.683C594.383 613.121 593.286 613.303 592.195 613.212C591.104 613.122 590.052 612.761 589.135 612.164C588.665 611.856 588.252 612.623 588.718 612.929C589.735 613.584 590.897 613.981 592.102 614.084C593.307 614.186 594.519 613.992 595.632 613.519C595.741 613.483 595.832 613.407 595.887 613.306C595.941 613.206 595.956 613.088 595.927 612.977C595.894 612.867 595.818 612.774 595.717 612.719C595.616 612.664 595.497 612.651 595.386 612.683Z" fill="white"/>
<path d="M527.341 630.54C527.629 630.74 527.917 630.941 528.205 631.149C532.059 633.865 535.687 636.89 539.051 640.193C539.315 640.445 539.579 640.703 539.836 640.962C547.857 649.007 554.315 658.473 558.882 668.876C560.695 673.018 562.191 677.291 563.356 681.66C564.965 687.693 566.229 694.362 569.636 699.364C569.986 699.89 570.368 700.394 570.78 700.872L602.989 701.907C603.063 701.873 603.138 701.846 603.212 701.811L604.496 701.911C604.452 701.682 604.401 701.445 604.357 701.215C604.332 701.082 604.299 700.949 604.274 700.815C604.255 700.727 604.236 700.638 604.224 700.556C604.217 700.527 604.211 700.497 604.204 700.475C604.192 700.393 604.172 700.319 604.16 700.245C603.879 698.919 603.588 697.593 603.287 696.266C603.288 696.259 603.288 696.259 603.281 696.251C601.086 686.121 597.698 676.287 593.187 666.955C593.049 666.678 592.911 666.394 592.758 666.117C590.663 661.983 588.234 658.027 585.495 654.288C583.988 652.246 582.379 650.282 580.674 648.402C576.259 643.555 571.109 639.432 565.412 636.185C554.056 629.713 540.757 626.946 528.291 630.276C527.972 630.362 527.66 630.447 527.341 630.54Z" fill="#F0F0F0"/>
<path d="M527.4 630.951C543.337 634.652 557.703 643.282 568.456 655.613C570.818 658.227 572.754 661.197 574.191 664.413C575.491 667.591 575.915 671.06 575.421 674.458C575.023 677.635 574.249 680.839 574.631 684.058C574.851 685.703 575.416 687.283 576.289 688.694C577.162 690.105 578.324 691.315 579.697 692.246C583.06 694.653 587.087 695.709 591.061 696.605C595.473 697.599 600.072 698.562 603.688 701.454C604.126 701.805 604.645 701.104 604.207 700.754C597.915 695.722 589.244 696.457 582.301 692.824C579.061 691.128 576.312 688.446 575.615 684.737C575.006 681.494 575.802 678.189 576.232 674.975C576.763 671.667 576.476 668.28 575.396 665.109C574.127 661.829 572.309 658.79 570.02 656.121C564.963 650.029 558.98 644.771 552.29 640.538C544.682 635.665 536.296 632.13 527.495 630.085C526.95 629.959 526.859 630.826 527.4 630.951Z" fill="white"/>
<path d="M565.227 651.438C567.051 649.353 568.074 646.687 568.114 643.917C568.154 641.147 567.208 638.453 565.445 636.316C565.087 635.884 564.4 636.421 564.759 636.853C566.404 638.84 567.285 641.349 567.243 643.929C567.2 646.508 566.237 648.988 564.527 650.92C564.156 651.34 564.858 651.856 565.227 651.438Z" fill="white"/>
<path d="M575.835 672.873C570.188 673.301 564.588 671.585 560.15 668.067C559.71 667.718 559.192 668.419 559.631 668.767C564.256 672.419 570.088 674.193 575.963 673.735C576.522 673.69 576.391 672.829 575.835 672.873Z" fill="white"/>
<path d="M544.497 636.806C543.959 637.759 543.193 638.565 542.267 639.15C541.342 639.734 540.285 640.08 539.193 640.155C538.633 640.192 538.765 641.054 539.321 641.017C540.527 640.928 541.694 640.545 542.718 639.901C543.742 639.258 544.593 638.373 545.197 637.324C545.262 637.23 545.289 637.115 545.272 637.002C545.255 636.889 545.196 636.786 545.106 636.715C545.013 636.647 544.897 636.618 544.783 636.635C544.669 636.652 544.566 636.713 544.497 636.806Z" fill="white"/>
<path d="M840 703.484C839.999 703.78 839.881 704.064 839.672 704.274C839.462 704.484 839.178 704.602 838.881 704.603H1.11892C0.82227 704.603 0.537766 704.485 0.328002 704.275C0.118239 704.065 0.000396729 703.781 0.000396729 703.484C0.000396729 703.187 0.118239 702.903 0.328002 702.693C0.537766 702.483 0.82227 702.365 1.11892 702.365H838.881C839.178 702.366 839.462 702.484 839.672 702.694C839.881 702.903 839.999 703.187 840 703.484Z" fill="#3F3D56"/>
<path d="M539.627 270.737C541.963 270.737 543.856 268.843 543.856 266.507C543.856 264.17 541.963 262.276 539.627 262.276C537.291 262.276 535.397 264.17 535.397 266.507C535.397 268.843 537.291 270.737 539.627 270.737Z" fill="#3F3D56"/>
<path d="M486.663 299.091L543.686 263.261C544.201 262.937 544.778 262.721 545.379 262.626C545.981 262.53 546.596 262.558 547.187 262.707C547.777 262.856 548.332 263.123 548.816 263.493C549.301 263.862 549.705 264.326 550.006 264.856C550.306 265.386 550.496 265.971 550.564 266.577C550.632 267.182 550.576 267.795 550.401 268.379C550.225 268.962 549.933 269.504 549.542 269.971C549.151 270.439 548.67 270.822 548.126 271.098L488.094 301.617C487.761 301.787 487.375 301.821 487.017 301.713C486.659 301.605 486.356 301.363 486.172 301.038C485.987 300.713 485.936 300.329 486.027 299.966C486.118 299.604 486.346 299.29 486.663 299.091Z" fill="#E4E4E4"/>
<path d="M372.263 376.241C371.814 375.573 371.579 374.784 371.591 373.979C371.603 373.175 371.86 372.393 372.328 371.738C373.293 370.446 374.578 369.427 376.056 368.781C379.107 367.228 382.394 366.19 385.783 365.707C388.359 365.341 391.17 365.225 393.168 363.558C395.153 361.903 396.26 358.808 398.831 358.549C401.317 358.299 403.229 361.021 405.722 361.19C408.795 361.398 410.807 357.801 413.797 357.064C415.799 356.57 417.857 357.441 419.734 358.293L431.001 363.405L436.776 366.026C438.794 366.941 441.069 368.174 441.449 370.356C441.973 373.355 438.638 375.471 435.787 376.535C415.428 384.05 393.055 384.053 372.694 376.543" fill="#5B362E"/>
<path d="M389.237 431.487C470.997 431.487 537.277 422.017 537.277 410.336C537.277 398.654 470.997 389.184 389.237 389.184C307.477 389.184 241.198 398.654 241.198 410.336C241.198 422.017 307.477 431.487 389.237 431.487Z" fill="#3F3D56"/>
<path d="M689.546 541.474H588.034C583.362 541.474 579.574 545.262 579.574 549.935C579.574 554.607 583.362 558.395 588.034 558.395H689.546C694.218 558.395 698.006 554.607 698.006 549.935C698.006 545.262 694.218 541.474 689.546 541.474Z" fill="#3F3D56"/>
<path d="M738.742 390.632L705.215 549.925L713.947 590.695L730.433 667.639V702.224C730.435 702.271 730.432 702.318 730.424 702.365C730.418 703.129 730.278 703.887 730.01 704.602H716.758C716.489 703.887 716.349 703.129 716.344 702.365C716.336 702.318 716.333 702.271 716.334 702.224V669.125L701.371 599.288L698.344 585.187L692.488 557.859L690.796 549.944V549.934L692.469 542L693.757 535.881L724.944 387.737C725.134 386.83 725.5 385.969 726.022 385.204C726.544 384.439 727.212 383.784 727.987 383.277C728.762 382.77 729.63 382.421 730.54 382.249C731.45 382.078 732.386 382.088 733.292 382.278C734.199 382.468 735.059 382.835 735.823 383.358C736.588 383.881 737.242 384.549 737.748 385.325C738.254 386.101 738.603 386.969 738.773 387.88C738.944 388.79 738.933 389.726 738.742 390.632Z" fill="#3F3D56"/>
<path d="M595.083 549.934V702.224C595.084 702.271 595.081 702.318 595.074 702.365C595.068 703.129 594.928 703.887 594.66 704.602H581.407C581.139 703.887 580.999 703.129 580.993 702.365C580.985 702.318 580.982 702.271 580.984 702.224V549.934C580.984 548.065 581.726 546.271 583.048 544.949C584.371 543.627 586.164 542.884 588.033 542.884C589.903 542.884 591.696 543.627 593.018 544.949C594.34 546.271 595.083 548.065 595.083 549.934Z" fill="#3F3D56"/>
<path d="M604.952 524.553H672.628C679.358 524.553 685.813 527.227 690.573 531.987C695.332 536.747 698.006 543.203 698.006 549.934H579.574C579.574 543.203 582.248 536.747 587.007 531.987C591.767 527.227 598.222 524.553 604.952 524.553Z" fill="#3F3D56"/>
<path d="M706.465 599.288H588.033C586.164 599.288 584.37 598.545 583.048 597.223C581.726 595.9 580.984 594.107 580.984 592.237C580.984 590.367 581.726 588.574 583.048 587.252C584.37 585.93 586.164 585.187 588.033 585.187H706.465C708.334 585.187 710.127 585.93 711.449 587.252C712.772 588.574 713.514 590.367 713.514 592.237C713.514 594.107 712.772 595.9 711.449 597.223C710.127 598.545 708.334 599.288 706.465 599.288Z" fill="#3F3D56"/>
<path d="M155.579 558.651H275.035C279.707 558.651 283.495 554.864 283.495 550.191V547.627C283.495 542.955 279.707 539.167 275.035 539.167H155.579C150.907 539.167 147.119 542.955 147.119 547.627V550.191C147.119 554.864 150.907 558.651 155.579 558.651Z" fill="#3F3D56"/>
<path d="M154.348 549.023L152.186 557.934L144.253 590.573L140.832 604.674L124.947 670.083V698.464C124.951 699.853 124.538 701.212 123.763 702.365C123.153 703.297 122.323 704.065 121.347 704.602H114.448C113.472 704.065 112.642 703.297 112.032 702.365C111.256 701.212 110.844 699.853 110.848 698.464V668.391L128.5 595.725L139.892 548.797L101.261 365.25C101.069 364.344 101.059 363.41 101.229 362.5C101.399 361.589 101.747 360.722 102.253 359.946C102.759 359.171 103.412 358.503 104.176 357.98C104.94 357.457 105.8 357.09 106.706 356.9C107.612 356.71 108.547 356.7 109.456 356.871C110.366 357.042 111.233 357.391 112.008 357.898C112.783 358.405 113.451 359.059 113.972 359.824C114.494 360.589 114.86 361.449 115.049 362.355L150.758 531.97L152.403 539.791L154.32 548.91L154.348 549.023Z" fill="#3F3D56"/>
<path d="M280.807 548.91V698.463C280.811 699.853 280.398 701.212 279.622 702.365C279.012 703.297 278.183 704.065 277.207 704.602H270.298C269.327 704.062 268.501 703.294 267.892 702.365C267.116 701.212 266.704 699.853 266.708 698.463V548.91C266.708 547.04 267.451 545.246 268.773 543.924C270.095 542.602 271.888 541.859 273.757 541.859C275.627 541.859 277.42 542.602 278.742 543.924C280.064 545.246 280.807 547.04 280.807 548.91Z" fill="#3F3D56"/>
<path d="M283.495 548.909H147.119V545.063C147.119 541.73 147.776 538.43 149.051 535.35C150.326 532.271 152.196 529.473 154.552 527.116C156.909 524.759 159.707 522.889 162.786 521.614C165.865 520.338 169.165 519.682 172.497 519.682H258.117C264.848 519.682 271.303 522.356 276.062 527.116C280.821 531.876 283.495 538.332 283.495 545.063L283.495 548.909Z" fill="#3F3D56"/>
<path d="M273.754 604.671H137.378C135.508 604.671 133.715 603.929 132.393 602.606C131.071 601.284 130.328 599.491 130.328 597.621C130.328 595.751 131.071 593.958 132.393 592.635C133.715 591.313 135.508 590.57 137.378 590.57H273.754C275.623 590.57 277.417 591.313 278.739 592.635C280.061 593.958 280.803 595.751 280.803 597.621C280.803 599.491 280.061 601.284 278.739 602.606C277.417 603.929 275.623 604.671 273.754 604.671Z" fill="#3F3D56"/>
<path d="M449.019 666.174L434.202 659.087L454.555 597.147L476.423 607.606L449.019 666.174Z" fill="#9E616A"/>
<path d="M549.43 660.563L533.498 664.495L510.415 603.535L533.93 597.732L549.43 660.563Z" fill="#9E616A"/>
<path d="M488.366 396.956C490.479 400.389 493.85 402.859 497.76 403.84C501.669 404.821 505.807 404.235 509.29 402.206C509.991 401.782 510.655 401.301 511.276 400.767L558.119 427.653L556.084 400.054L511.913 378.754C509.51 376.34 506.373 374.791 502.995 374.351C499.617 373.911 496.188 374.604 493.247 376.323C491.553 377.34 490.08 378.685 488.914 380.281C487.748 381.876 486.914 383.688 486.459 385.611C486.004 387.533 485.938 389.528 486.266 391.476C486.593 393.425 487.307 395.288 488.366 396.956Z" fill="#9E616A"/>
<path d="M537.98 417.529L546.26 422.575L583.448 445.255C585.89 446.784 588.61 447.816 591.452 448.292C594.294 448.769 597.201 448.681 600.009 448.032C602.817 447.384 605.469 446.189 607.814 444.515C610.16 442.841 612.152 440.721 613.678 438.277C616.431 433.74 617.406 428.343 616.413 423.129L599.884 340.543C599.274 337.301 597.97 334.229 596.063 331.537C594.156 328.845 591.691 326.597 588.835 324.946C585.979 323.295 582.801 322.28 579.517 321.97C576.232 321.661 572.92 322.064 569.806 323.153C564.573 324.993 560.236 328.757 557.679 333.681C555.122 338.605 554.537 344.318 556.042 349.659L573.325 408.268L546.833 395.916L537.98 417.529Z" fill="#E6E6E6"/>
<path d="M518.402 643.48L492.908 592.342L492.911 592.225L495.428 498.429C495.46 497.595 495.527 496.757 495.629 495.932C496.073 492.172 497.262 488.537 499.126 485.24C500.989 481.944 503.491 479.051 506.483 476.731C509.35 474.488 512.634 472.838 516.145 471.878C519.655 470.918 523.322 470.666 526.93 471.138L599.832 480.574L602.36 470.235L602.831 470.063L672.681 444.46L673.084 445.116C682.232 460.003 688.627 489.74 690.369 498.499L690.394 498.625C690.431 498.81 690.453 498.922 690.461 498.955C694.057 513.902 679.199 538.664 664.397 542.386C633.219 550.333 605.336 544.134 573.049 536.954C561.472 534.378 549.507 531.717 536.327 529.416L536.719 537.174C537.04 543.145 538.28 549.031 540.396 554.624C542.746 561.507 544.602 566.944 540.677 578.28L538.778 583.764C539.763 586.487 540.102 589.401 539.769 592.277C539.435 595.152 538.438 597.912 536.856 600.336L536.475 600.92L553.288 643.47L518.402 643.48Z" fill="#2F2E41"/>
<path d="M476.514 620.865L446.112 618.039L456.882 583.588C459.105 561.094 464.706 539.063 473.495 518.238L488.187 483.416C488.22 482.642 488.286 481.862 488.38 481.098C488.825 477.337 490.013 473.702 491.877 470.405C493.741 467.109 496.242 464.216 499.235 461.897C502.102 459.654 505.386 458.005 508.896 457.045C512.406 456.085 516.073 455.833 519.681 456.304L592.475 465.726L595.646 439.112L665.515 429.761L665.835 430.282C678.047 450.155 685.801 465.712 690.235 479.243C690.457 479.933 690.655 480.637 690.824 481.339C694.444 496.387 685.407 511.644 670.677 515.349C633.141 524.92 588.004 524.654 528.657 514.508L499.935 582.869C497.19 589.399 493.791 595.633 489.791 601.478L476.514 620.865Z" fill="#2F2E41"/>
<path d="M582.561 275.756C602.011 275.756 617.778 259.635 617.778 239.75C617.778 219.864 602.011 203.743 582.561 203.743C563.111 203.743 547.344 219.864 547.344 239.75C547.344 259.635 563.111 275.756 582.561 275.756Z" fill="#9E616A"/>
<path d="M592.73 466.983L587.677 448.878L586.434 439.947L579.171 440.19L564.917 407.285L559.381 398.608C558.252 397.419 557.229 396.276 556.313 395.178C550.544 388.657 545.919 381.208 542.632 373.145C540.329 367.353 538.976 361.226 538.627 355.002C537.594 336.616 545.343 317.165 562.318 295.539C562.04 294.773 561.855 293.977 561.766 293.167C561.462 290.54 562.208 287.9 563.841 285.82C565.474 283.74 567.863 282.389 570.487 282.062L586.859 280.223C588.133 280.079 589.422 280.189 590.652 280.548C591.882 280.906 593.029 281.506 594.025 282.312C595.065 283.146 595.929 284.178 596.566 285.349C597.203 286.52 597.601 287.806 597.736 289.133C597.955 291.184 597.551 293.254 596.578 295.073C604.923 296.133 612.786 299.578 619.223 304.995C625.66 310.412 630.398 317.572 632.868 325.615C642.666 343.906 650.474 363.196 656.161 383.152C657.282 387.061 656.783 391.088 656.3 394.983C655.854 398.581 655.393 402.301 656.168 406.009C656.957 409.78 658.854 413.563 660.863 417.569C663.163 422.156 665.542 426.9 666.185 431.735L666.23 432.074L592.73 466.983Z" fill="#E4E4E4"/>
<path opacity="0.2" d="M543.067 372.967C546.339 380.983 550.939 388.39 556.673 394.876C557.655 396.049 558.692 397.201 559.778 398.355L565.349 407.097C585.885 391.703 602.523 331.086 602.523 331.086L579.353 326.579L543.067 372.967Z" fill="black"/>
<path d="M529.039 279.12C531.068 282.605 531.657 286.745 530.68 290.659C529.704 294.572 527.239 297.95 523.811 300.073C523.107 300.494 522.37 300.856 521.607 301.155L523.247 355.147L499.869 340.428L501.895 291.413C500.9 288.151 501.013 284.652 502.216 281.461C503.419 278.27 505.644 275.568 508.545 273.775C510.234 272.753 512.111 272.08 514.065 271.795C516.019 271.511 518.01 271.621 519.92 272.119C521.831 272.618 523.622 273.494 525.188 274.696C526.754 275.899 528.064 277.403 529.039 279.12Z" fill="#9E616A"/>
<path d="M525.302 334.766L499.593 338.423L500.698 391.669C500.762 395.468 501.796 399.187 503.702 402.473C505.608 405.759 508.323 408.503 511.588 410.444C515.577 412.792 520.221 413.778 524.819 413.256C529.418 412.734 533.722 410.731 537.083 407.549L597.78 349.16C602.05 345.108 604.606 339.574 604.922 333.695C605.237 327.817 603.288 322.04 599.476 317.555C597.589 315.321 595.273 313.49 592.665 312.169C590.057 310.848 587.211 310.064 584.294 309.864C581.378 309.664 578.451 310.053 575.687 311.006C572.924 311.959 570.38 313.458 568.206 315.413C567.607 315.95 567.036 316.518 566.497 317.116L526.419 363.228L525.302 334.766Z" fill="#E6E6E6"/>
<path d="M310.276 682.077L328.524 682.076L337.205 611.68L310.273 611.681L310.276 682.077Z" fill="#FFB6B6"/>
<path d="M206.843 276.801C226.957 276.801 243.264 260.493 243.264 240.375C243.264 220.258 226.957 203.95 206.843 203.95C186.728 203.95 170.422 220.258 170.422 240.375C170.422 260.493 186.728 276.801 206.843 276.801Z" fill="#FFB6B6"/>
<path d="M334.479 660.391H308.639L302.051 651.559L300.267 643.238L298.733 641.753C296.651 639.754 295.304 637.111 294.912 634.251C294.52 631.391 295.105 628.483 296.573 625.997L277.845 538.608C272.94 538.177 217.624 533.23 179.172 526.424C169.331 524.683 161.648 519.898 156.336 512.205C143.282 493.299 148.874 462.71 148.932 462.403L148.996 462.062L149.341 462.023L239.156 451.941L239.277 451.998C242.258 453.41 312.405 486.716 323.869 498.181C329.045 503.358 340.594 534.117 343.179 566.818C343.642 572.676 341.976 578.642 340.364 584.412C338.856 589.811 337.296 595.393 337.604 600.67C338.08 608.812 338.53 617.354 338.944 626.057C339.01 627.443 340.054 628.879 341.065 630.266C342.12 631.716 343.117 633.085 343.18 634.519C343.794 648.416 334.712 660.096 334.62 660.212L334.479 660.391Z" fill="#2F2E41"/>
<path d="M340.363 337.395C338.407 336.86 336.357 336.761 334.358 337.104C332.359 337.447 330.459 338.225 328.793 339.381C327.127 340.538 325.734 342.046 324.714 343.8C323.693 345.553 323.07 347.508 322.887 349.529L292.625 358.988L293.888 378.782L336.435 364.824C339.849 364.906 343.175 363.733 345.782 361.527C348.389 359.321 350.096 356.235 350.58 352.855C351.065 349.474 350.292 346.033 348.409 343.183C346.526 340.334 343.663 338.275 340.363 337.395Z" fill="#FFB6B6"/>
<path d="M320.619 370.151L298.002 378.713L297.424 379.835C296.037 382.525 293.639 384.554 290.756 385.476C287.874 386.398 284.743 386.136 282.053 384.75L231.217 403.993C231.217 403.993 208.515 381.271 192.352 360.994L197.861 327.106C199.136 319.244 201.848 311.684 205.86 304.803C239.008 312.072 258.036 358.416 258.036 358.416L317.777 347.016L320.619 370.151Z" fill="#5B362E"/>
<path d="M201.667 274.854C192.549 277.317 182.497 274.043 175.381 267.832C168.266 261.62 163.814 252.819 161.25 243.728C159.371 237.07 158.481 229.679 161.445 223.429C164.409 217.178 172.386 212.961 178.541 216.118C174.744 211.694 176.641 204.377 181.075 200.592C185.51 196.808 191.599 195.723 197.398 195.13C205.814 194.269 214.508 194.172 222.517 196.899C230.525 199.626 237.802 205.588 240.309 213.67C242.869 214.862 245.752 215.171 248.506 214.549C251.261 213.927 253.731 212.409 255.531 210.233C255.995 212.732 255.622 215.315 254.47 217.582C253.319 219.848 251.452 221.672 249.16 222.771L261.431 218.792C263.541 223.26 259.844 228.789 255.115 230.22C250.386 231.65 245.282 230.087 240.794 228.02C236.307 225.953 231.958 223.34 227.084 222.533C222.21 221.727 216.485 223.294 214.23 227.69C213.049 229.993 212.988 232.69 212.302 235.185C211.616 237.681 209.88 240.268 207.3 240.472C205.67 240.601 204.075 239.733 202.45 239.911C200.435 240.131 198.893 241.956 198.356 243.911C197.951 245.903 197.946 247.955 198.341 249.949L201.458 273.778" fill="#2F2E41"/>
<path d="M156.545 516.558C156.538 516.558 156.531 516.557 156.525 516.556L156.237 516.506L156.153 516.226C155.106 512.704 153.774 509.098 152.485 505.611C150.587 500.782 148.985 495.842 147.687 490.818C146.665 486.015 145.957 481.151 145.566 476.256C145.207 472.702 144.835 469.027 144.203 465.41C143.922 463.804 144.986 462.283 146.014 460.812C146.968 459.448 147.869 458.159 147.68 456.941C147.487 455.695 146.105 454.326 144.768 453.002C143.304 451.551 141.789 450.05 141.574 448.471C138.655 426.925 137.296 405.196 137.508 383.454C137.81 353.371 139.169 332.867 141.548 322.509C147.945 294.658 177.5 289.575 182.126 288.947C182.618 287.635 183.376 286.438 184.351 285.431C185.326 284.424 186.498 283.628 187.794 283.094C189.09 282.559 190.482 282.297 191.884 282.324C193.285 282.351 194.666 282.666 195.941 283.249L216.94 292.863C221.199 294.82 225.011 297.632 228.138 301.125C231.265 304.618 233.64 308.716 235.116 313.166L238.236 322.677L239.798 386.525L231.139 431.487L248.058 456.869C157.887 506.381 156.836 516.558 156.545 516.558Z" fill="#5B362E"/>
<path d="M300.456 674.983L306.389 674.983L329.553 665.561L341.968 674.981H341.969C348.985 674.982 355.714 677.769 360.675 682.731C365.636 687.692 368.423 694.422 368.424 701.439V702.298L300.457 702.301L300.456 674.983Z" fill="#2F2E41"/>
<path d="M347.94 382.958C346.191 381.931 344.238 381.3 342.219 381.11C340.199 380.919 338.163 381.174 336.252 381.856C334.342 382.538 332.605 383.631 331.162 385.057C329.72 386.483 328.608 388.208 327.904 390.111L296.223 391.346L291.954 406.105L336.993 408.411C340.268 409.382 343.784 409.117 346.876 407.668C349.968 406.219 352.422 403.685 353.771 400.548C355.12 397.41 355.272 393.887 354.197 390.645C353.123 387.403 350.896 384.668 347.94 382.958Z" fill="#FFB6B6"/>
<path d="M321.917 410.003L289.374 409.597L285.255 409.542L219.045 408.707C219.045 408.707 201.065 391.552 185.409 373.889L187.603 358.015C189.744 342.437 197.471 328.166 209.346 317.86C231.769 332.845 244.773 362.506 244.773 362.506L266.576 372.263C281.92 372.95 296.872 377.329 310.162 385.03L317.333 389.184L321.917 410.003Z" fill="#5B362E"/>
<path d="M561.056 690.59L550.228 693.263L545.772 683.515L543.345 694.961L514.627 702.05C513.25 702.39 511.801 702.281 510.491 701.738C509.18 701.196 508.078 700.249 507.344 699.036C506.61 697.823 506.283 696.407 506.411 694.994C506.538 693.582 507.114 692.247 508.054 691.186L527.079 669.684L524.528 659.348L549.006 654.834L561.056 690.59Z" fill="#2F2E41"/>
<path d="M446.345 693.932L436.019 689.716L438.155 679.214L429.456 687.037L402.069 675.857C400.756 675.321 399.649 674.38 398.909 673.17C398.169 671.96 397.835 670.546 397.956 669.133C398.077 667.72 398.646 666.383 399.581 665.316C400.516 664.25 401.767 663.51 403.151 663.205L431.187 657.027L435.21 647.17L457.653 657.934L446.345 693.932Z" fill="#2F2E41"/>
<path d="M410.386 406.576H401.926C392.831 406.565 384.11 402.947 377.679 396.514C371.247 390.082 367.629 381.36 367.619 372.263V371.793H444.693V372.263C444.683 381.36 441.065 390.082 434.634 396.514C428.202 402.947 419.482 406.565 410.386 406.576Z" fill="#E4E4E4"/>
<path d="M401.926 359.572C401.926 361.909 397.697 363.803 397.697 363.803C397.697 363.803 393.467 361.909 393.467 359.572C393.467 357.236 397.697 355.342 397.697 355.342C397.697 355.342 401.926 357.236 401.926 359.572Z" fill="#3F3D56"/>
<path d="M427.305 359.572C427.305 361.909 423.075 363.803 423.075 363.803C423.075 363.803 418.845 361.909 418.845 359.572C418.845 357.236 423.075 355.342 423.075 355.342C423.075 355.342 427.305 357.236 427.305 359.572Z" fill="#3F3D56"/>
<path d="M410.386 368.033C410.386 370.369 406.156 372.263 406.156 372.263C406.156 372.263 401.927 370.369 401.927 368.033C401.927 365.697 406.156 363.803 406.156 363.803C406.156 363.803 410.386 365.697 410.386 368.033Z" fill="#3F3D56"/>
<path d="M380.778 350.642C383.114 350.642 385.008 348.748 385.008 346.412C385.008 344.075 383.114 342.181 380.778 342.181C378.442 342.181 376.548 344.075 376.548 346.412C376.548 348.748 378.442 350.642 380.778 350.642Z" fill="#3F3D56"/>
<path d="M319.263 337.321L385.973 346.535C386.576 346.618 387.157 346.823 387.679 347.137C388.201 347.451 388.654 347.867 389.011 348.361C389.368 348.855 389.621 349.416 389.755 350.011C389.888 350.605 389.9 351.221 389.79 351.82C389.679 352.419 389.448 352.99 389.111 353.497C388.774 354.004 388.337 354.438 387.828 354.772C387.318 355.106 386.746 355.333 386.146 355.44C385.547 355.547 384.931 355.531 384.338 355.393L318.736 340.176C318.372 340.092 318.054 339.87 317.849 339.557C317.644 339.244 317.568 338.864 317.636 338.497C317.704 338.129 317.911 337.801 318.214 337.582C318.517 337.363 318.893 337.27 319.263 337.321Z" fill="#E4E4E4"/>
<path d="M400.327 127.108V0H391.868V127.108C380.31 128.163 369.563 133.5 361.737 142.073C353.912 150.645 349.572 161.833 349.571 173.441V186.132H379.179C379.179 190.619 380.961 194.923 384.134 198.097C387.307 201.27 391.61 203.053 396.097 203.053C400.585 203.053 404.888 201.27 408.061 198.097C411.234 194.923 413.016 190.619 413.016 186.132H442.624V173.441C442.623 161.833 438.283 150.645 430.458 142.073C422.632 133.5 411.885 128.163 400.327 127.108Z" fill="#F0F0F0"/>
<path d="M509.242 95.3311V0H502.897V95.3311C494.229 96.1221 486.169 100.125 480.3 106.554C474.43 112.984 471.176 121.375 471.175 130.081V139.599H493.381C493.381 142.965 494.718 146.193 497.097 148.573C499.477 150.952 502.704 152.29 506.07 152.29C509.435 152.29 512.663 150.952 515.042 148.573C517.422 146.193 518.759 142.965 518.759 139.599H540.965V130.081C540.964 121.375 537.709 112.984 531.84 106.554C525.971 100.125 517.911 96.1221 509.242 95.3311Z" fill="#F0F0F0"/>
<path d="M294.937 95.3311V0H288.593V95.3311C279.924 96.1221 271.864 100.125 265.995 106.554C260.126 112.984 256.871 121.375 256.87 130.081V139.599H279.076C279.076 142.965 280.413 146.193 282.792 148.573C285.172 150.952 288.4 152.29 291.765 152.29C295.13 152.29 298.358 150.952 300.738 148.573C303.117 146.193 304.454 142.965 304.454 139.599H326.66V130.081C326.659 121.375 323.404 112.984 317.535 106.554C311.666 100.125 303.606 96.1221 294.937 95.3311Z" fill="#F0F0F0"/>
<path d="M676.798 224.134C670.811 217.152 667.965 207.889 663.18 199.961C658.394 192.033 650.067 184.937 641.269 186.782C635.205 188.054 630.518 193.406 628.145 199.373C625.773 205.34 625.328 211.921 624.912 218.367C625.059 205.119 616.332 192.276 604.31 188.049C592.289 183.822 577.903 188.537 570.349 199.18C567.052 196.124 562.749 194.385 558.256 194.29C553.762 194.196 549.39 195.754 545.968 198.668C539.212 204.708 537.716 216.204 542.685 223.907C547.654 231.611 558.416 234.481 566.313 230.208L569.105 232.777C567.533 238.274 570.581 244.767 575.703 246.836C579.857 248.515 585.722 248.235 587.276 252.595C588.363 255.642 586.332 258.893 584.172 261.234C582.013 263.575 579.449 265.992 579.19 269.232C578.798 274.12 583.848 277.544 588.439 278.575C599.509 281.061 611.792 275.934 618.172 266.164C618.295 265.975 618.429 265.787 618.573 265.598C622.153 261.019 624.762 255.759 626.24 250.138C627.718 244.518 628.035 238.654 627.172 232.907C626.813 230.649 627.174 228.969 628.731 228.434C635.46 226.123 654.312 230.974 660.017 235.359C665.723 239.744 670.292 245.547 675.787 250.214C681.283 254.882 688.286 258.483 695.264 257.212C700.853 256.194 705.607 252.136 708.805 247.241C712.002 242.347 713.843 236.641 715.491 230.971C703.133 238.111 686.22 235.123 676.798 224.134Z" fill="#2F2E41"/>
</g>
<defs>
<clipPath id="clip0_1_1386">
<rect width="840" height="704.602" fill="white"/>
</clipPath>
</defs>
</svg>
