<svg width="943" height="791" viewBox="0 0 943 791" fill="none" xmlns="http://www.w3.org/2000/svg">
<g clip-path="url(#clip0_1_1386)">
<path d="M613.864 782.155L437.213 463.618C437.163 462.838 436.921 462.083 436.51 461.419C436.099 460.755 435.531 460.202 434.855 459.81C434.08 459.367 433.195 459.153 432.303 459.194C432.275 459.192 432.246 459.193 432.217 459.192C432.188 459.193 432.159 459.192 432.131 459.194C430.922 459.137 429.739 459.55 428.828 460.346C427.917 461.142 427.349 462.26 427.242 463.465L240.018 782.155C239.706 782.695 239.503 783.292 239.421 783.91C239.34 784.529 239.381 785.157 239.542 785.76C239.703 786.362 239.981 786.927 240.361 787.422C240.741 787.917 241.214 788.333 241.754 788.645C242.295 788.956 242.891 789.159 243.509 789.24C244.128 789.322 244.756 789.28 245.359 789.119C245.961 788.957 246.526 788.678 247.021 788.298C247.515 787.918 247.93 787.445 248.242 786.904L432.091 473.961L605.64 786.904C605.952 787.445 606.367 787.918 606.862 788.298C607.356 788.678 607.921 788.957 608.523 789.119C609.126 789.28 609.754 789.322 610.373 789.24C610.991 789.159 611.588 788.956 612.128 788.645C612.668 788.333 613.141 787.917 613.521 787.422C613.901 786.927 614.179 786.362 614.34 785.76C614.502 785.157 614.543 784.529 614.461 783.91C614.379 783.292 614.176 782.695 613.864 782.155Z" fill="#3F3D56"/>
<path d="M402.945 727.503L422.913 722.921L414.745 643.715L385.275 650.477L402.945 727.503Z" fill="#FFB6B6"/>
<path d="M418.383 689.24L389.967 695.759L380.882 678.001L380.367 677.371C376.337 672.424 374.1 666.257 374.02 659.875L350.402 597.393L348.471 596.475C346.977 595.764 345.652 594.743 344.584 593.479C343.516 592.215 342.73 590.738 342.279 589.147C341.827 587.555 341.72 585.885 341.965 584.249C342.21 582.612 342.801 581.047 343.699 579.657L341.198 573.043L270.646 573.173L270.576 573.153L183.939 548.847L193.036 494.612L217.407 509.944C225.437 509.423 363.002 500.976 375.71 531.809C387.027 559.266 403.335 606.175 415.023 640.691C415.606 642.241 416.33 643.734 417.187 645.15C419.005 647.951 420.072 651.173 420.286 654.505C420.424 655.955 420.7 657.389 421.112 658.786C425.969 673.31 418.569 688.856 418.493 689.012L418.383 689.24Z" fill="#2F2E41"/>
<path d="M396.2 720.88L402.692 719.391L425.673 703.267L441.621 710.457L441.623 710.457C449.3 708.696 457.362 710.057 464.036 714.241C470.709 718.424 475.448 725.088 477.21 732.766L477.425 733.706L403.057 750.771L396.2 720.88Z" fill="#2F2E41"/>
<path d="M101.388 722.659C103.418 700.559 116.361 678.433 137.121 670.596C129.571 693.518 130.371 718.372 139.379 740.761C142.885 749.383 147.682 758.608 144.93 767.499C143.218 773.032 138.735 777.366 133.657 780.15C128.579 782.933 122.89 784.365 117.273 785.769L116.189 786.726C106.557 766.733 99.3577 744.759 101.388 722.659Z" fill="#F0F0F0"/>
<path d="M137.342 671.005C125.559 685.096 118.514 702.542 117.209 720.864C116.858 724.804 117.13 728.774 118.015 732.629C118.998 736.356 120.962 739.752 123.701 742.463C126.205 745.043 129.065 747.391 130.898 750.535C131.812 752.158 132.373 753.955 132.544 755.81C132.715 757.665 132.492 759.536 131.889 761.298C130.502 765.729 127.606 769.398 124.649 772.887C121.366 776.761 117.895 780.733 116.608 785.77C116.452 786.38 115.515 786.103 115.67 785.493C117.909 776.729 126.178 771.526 129.946 763.576C131.705 759.867 132.356 755.605 130.474 751.809C128.828 748.49 125.881 746.065 123.324 743.475C120.613 740.869 118.581 737.639 117.405 734.067C116.327 730.269 115.902 726.316 116.15 722.376C116.566 713.498 118.375 704.74 121.512 696.424C125.038 686.913 130.166 678.075 136.672 670.293C137.075 669.811 137.743 670.527 137.342 671.005Z" fill="white"/>
<path d="M117.282 714.94C114.238 714.303 111.519 712.605 109.611 710.149C107.703 707.693 106.731 704.639 106.866 701.532C106.873 701.405 106.929 701.286 107.022 701.199C107.114 701.113 107.237 701.066 107.364 701.068C107.491 701.07 107.612 701.122 107.701 701.211C107.791 701.301 107.842 701.422 107.845 701.549C107.713 704.442 108.619 707.287 110.4 709.571C112.182 711.854 114.721 713.426 117.559 714.002C118.175 714.127 117.895 715.065 117.282 714.94Z" fill="white"/>
<path d="M122.26 741.322C127.611 737.889 131.471 732.566 133.071 726.412C133.229 725.803 134.167 726.08 134.009 726.689C132.332 733.089 128.303 738.621 122.728 742.181C122.196 742.52 121.731 741.66 122.26 741.322Z" fill="white"/>
<path d="M125.975 687.81C127.101 688.301 128.332 688.505 129.557 688.404C130.782 688.302 131.962 687.898 132.992 687.227C133.52 686.881 133.984 687.743 133.46 688.086C132.319 688.822 131.014 689.267 129.661 689.382C128.308 689.498 126.948 689.28 125.698 688.748C125.576 688.708 125.474 688.622 125.413 688.51C125.351 688.397 125.335 688.265 125.367 688.14C125.405 688.016 125.489 687.912 125.603 687.85C125.717 687.788 125.85 687.774 125.975 687.81Z" fill="white"/>
<path d="M202.363 707.856C202.04 708.081 201.717 708.306 201.394 708.54C197.067 711.589 192.994 714.985 189.217 718.693C188.921 718.976 188.624 719.266 188.336 719.556C179.331 728.588 172.081 739.214 166.955 750.893C164.919 755.543 163.24 760.34 161.932 765.244C160.126 772.017 158.707 779.504 154.882 785.12C154.49 785.71 154.061 786.275 153.599 786.813L117.44 787.974C117.356 787.936 117.273 787.905 117.189 787.867L115.747 787.979C115.797 787.722 115.854 787.455 115.904 787.198C115.932 787.048 115.969 786.898 115.997 786.749C116.018 786.649 116.04 786.549 116.054 786.458C116.061 786.425 116.068 786.391 116.075 786.366C116.089 786.275 116.111 786.192 116.125 786.109C116.441 784.62 116.767 783.131 117.105 781.642C117.104 781.634 117.104 781.634 117.112 781.625C119.576 770.253 123.379 759.212 128.443 748.736C128.599 748.425 128.753 748.107 128.925 747.795C131.277 743.154 134.004 738.713 137.079 734.517C138.77 732.224 140.577 730.019 142.491 727.909C147.447 722.467 153.229 717.838 159.624 714.193C172.372 706.928 187.302 703.822 201.297 707.56C201.655 707.656 202.005 707.752 202.363 707.856Z" fill="#F0F0F0"/>
<path d="M202.296 708.318C184.406 712.473 168.279 722.16 156.206 736.004C153.555 738.938 151.382 742.272 149.768 745.882C148.31 749.451 147.833 753.344 148.388 757.159C148.834 760.726 149.704 764.323 149.275 767.937C149.028 769.783 148.394 771.556 147.413 773.14C146.433 774.724 145.129 776.083 143.587 777.128C139.812 779.831 135.291 781.016 130.83 782.021C125.877 783.138 120.714 784.218 116.654 787.466C116.162 787.859 115.581 787.073 116.072 786.68C123.135 781.03 132.87 781.856 140.664 777.777C144.301 775.874 147.387 772.863 148.169 768.699C148.854 765.058 147.96 761.348 147.477 757.74C146.881 754.026 147.204 750.223 148.416 746.663C149.841 742.982 151.881 739.57 154.451 736.574C160.128 729.735 166.844 723.832 174.355 719.08C182.896 713.61 192.31 709.641 202.19 707.345C202.802 707.203 202.904 708.177 202.296 708.318Z" fill="white"/>
<path d="M159.831 731.317C157.784 728.976 156.635 725.984 156.59 722.874C156.546 719.764 157.608 716.739 159.587 714.34C159.989 713.856 160.76 714.458 160.357 714.943C158.51 717.174 157.521 719.991 157.569 722.887C157.616 725.783 158.698 728.566 160.617 730.735C161.034 731.207 160.245 731.786 159.831 731.317Z" fill="white"/>
<path d="M147.924 755.38C154.263 755.861 160.55 753.934 165.532 749.985C166.025 749.593 166.607 750.38 166.114 750.771C160.922 754.871 154.375 756.862 147.78 756.347C147.152 756.298 147.299 755.331 147.924 755.38Z" fill="white"/>
<path d="M183.104 714.89C183.708 715.961 184.567 716.865 185.607 717.521C186.646 718.178 187.832 718.566 189.058 718.65C189.687 718.692 189.539 719.659 188.914 719.618C187.56 719.518 186.251 719.088 185.101 718.365C183.951 717.643 182.996 716.649 182.318 715.472C182.245 715.367 182.215 715.237 182.234 715.11C182.253 714.983 182.319 714.868 182.42 714.788C182.524 714.712 182.655 714.679 182.783 714.698C182.911 714.717 183.026 714.786 183.104 714.89Z" fill="white"/>
<path d="M692.979 722.659C690.949 700.559 678.005 678.433 657.246 670.596C664.796 693.518 663.996 718.372 654.987 740.761C651.482 749.383 646.685 758.608 649.436 767.499C651.148 773.032 655.632 777.366 660.709 780.15C665.787 782.933 671.476 784.365 677.094 785.769L678.178 786.726C687.81 766.733 695.009 744.759 692.979 722.659Z" fill="#F0F0F0"/>
<path d="M657.024 671.005C668.807 685.096 675.852 702.542 677.158 720.864C677.509 724.804 677.237 728.774 676.352 732.629C675.368 736.356 673.404 739.752 670.665 742.463C668.161 745.043 665.302 747.391 663.469 750.535C662.555 752.158 661.993 753.955 661.823 755.81C661.652 757.665 661.875 759.536 662.477 761.298C663.864 765.729 666.76 769.398 669.717 772.887C673 776.761 676.472 780.733 677.758 785.77C677.914 786.38 678.852 786.103 678.696 785.493C676.458 776.729 668.188 771.526 664.42 763.576C662.662 759.867 662.011 755.605 663.893 751.809C665.538 748.49 668.485 746.065 671.042 743.475C673.754 740.869 675.786 737.639 676.961 734.067C678.039 730.269 678.464 726.316 678.216 722.376C677.8 713.498 675.991 704.74 672.855 696.424C669.328 686.913 664.201 678.075 657.694 670.293C657.291 669.811 656.624 670.527 657.024 671.005Z" fill="white"/>
<path d="M677.085 714.94C680.129 714.303 682.847 712.605 684.755 710.149C686.663 707.693 687.636 704.639 687.5 701.532C687.493 701.405 687.438 701.286 687.345 701.199C687.252 701.113 687.129 701.066 687.003 701.068C686.876 701.07 686.755 701.122 686.665 701.211C686.575 701.301 686.524 701.422 686.522 701.549C686.654 704.442 685.747 707.287 683.966 709.571C682.185 711.854 679.646 713.426 676.808 714.002C676.191 714.127 676.471 715.065 677.085 714.94Z" fill="white"/>
<path d="M672.107 741.322C666.756 737.889 662.896 732.566 661.295 726.412C661.137 725.803 660.199 726.08 660.357 726.689C662.034 733.089 666.063 738.621 671.639 742.181C672.171 742.52 672.635 741.66 672.107 741.322Z" fill="white"/>
<path d="M668.392 687.81C667.265 688.301 666.034 688.505 664.809 688.404C663.584 688.302 662.404 687.898 661.374 687.227C660.847 686.881 660.383 687.743 660.906 688.086C662.048 688.822 663.352 689.267 664.705 689.382C666.058 689.498 667.419 689.28 668.668 688.748C668.79 688.708 668.892 688.622 668.954 688.51C669.015 688.397 669.031 688.265 668.999 688.14C668.962 688.016 668.877 687.912 668.763 687.85C668.649 687.788 668.516 687.774 668.392 687.81Z" fill="white"/>
<path d="M592.003 707.856C592.326 708.081 592.65 708.306 592.973 708.54C597.3 711.589 601.372 714.985 605.149 718.693C605.446 718.976 605.742 719.266 606.03 719.556C615.035 728.588 622.285 739.214 627.412 750.893C629.447 755.543 631.126 760.34 632.434 765.244C634.24 772.017 635.659 779.504 639.484 785.12C639.877 785.71 640.306 786.275 640.768 786.813L676.927 787.974C677.01 787.936 677.094 787.905 677.178 787.867L678.619 787.979C678.569 787.722 678.512 787.455 678.463 787.198C678.434 787.048 678.398 786.898 678.37 786.749C678.348 786.649 678.326 786.549 678.313 786.458C678.306 786.425 678.299 786.391 678.291 786.366C678.278 786.275 678.255 786.192 678.241 786.109C677.926 784.62 677.599 783.131 677.262 781.642C677.262 781.634 677.262 781.634 677.254 781.625C674.791 770.253 670.987 759.212 665.923 748.736C665.768 748.425 665.613 748.107 665.441 747.795C663.09 743.154 660.363 738.713 657.287 734.517C655.596 732.224 653.79 730.019 651.876 727.909C646.919 722.467 641.138 717.838 634.743 714.193C621.994 706.928 607.064 703.822 593.07 707.56C592.712 707.656 592.362 707.752 592.003 707.856Z" fill="#F0F0F0"/>
<path d="M592.07 708.318C609.961 712.473 626.088 722.16 638.16 736.004C640.812 738.938 642.985 742.272 644.598 745.882C646.057 749.451 646.533 753.344 645.978 757.159C645.532 760.726 644.663 764.323 645.092 767.937C645.338 769.783 645.973 771.556 646.953 773.14C647.933 774.724 649.237 776.083 650.779 777.128C654.554 779.831 659.075 781.016 663.536 782.021C668.49 783.137 673.652 784.218 677.712 787.466C678.204 787.859 678.786 787.073 678.294 786.68C671.231 781.03 661.496 781.855 653.702 777.777C650.065 775.874 646.979 772.863 646.197 768.699C645.513 765.058 646.406 761.347 646.889 757.74C647.485 754.026 647.163 750.223 645.951 746.663C644.526 742.982 642.485 739.57 639.916 736.574C634.239 729.735 627.522 723.832 620.012 719.08C611.47 713.61 602.056 709.641 592.176 707.345C591.565 707.203 591.462 708.177 592.07 708.318Z" fill="white"/>
<path d="M634.535 731.317C636.583 728.976 637.731 725.984 637.776 722.874C637.821 719.764 636.759 716.739 634.78 714.34C634.378 713.856 633.607 714.458 634.009 714.943C635.856 717.174 636.845 719.991 636.798 722.887C636.75 725.783 635.669 728.566 633.749 730.735C633.333 731.207 634.121 731.786 634.535 731.317Z" fill="white"/>
<path d="M646.443 755.38C640.104 755.861 633.817 753.934 628.835 749.985C628.342 749.593 627.76 750.38 628.252 750.771C633.444 754.871 639.991 756.862 646.586 756.347C647.215 756.298 647.068 755.331 646.443 755.38Z" fill="white"/>
<path d="M611.262 714.89C610.659 715.961 609.799 716.865 608.76 717.521C607.721 718.178 606.535 718.566 605.308 718.65C604.68 718.692 604.827 719.659 605.452 719.618C606.806 719.518 608.116 719.088 609.265 718.365C610.415 717.643 611.371 716.649 612.048 715.472C612.121 715.367 612.151 715.237 612.133 715.11C612.114 714.983 612.047 714.868 611.946 714.788C611.842 714.712 611.712 714.679 611.584 714.698C611.456 714.717 611.34 714.786 611.262 714.89Z" fill="white"/>
<path d="M943 789.744C942.999 790.077 942.867 790.396 942.631 790.631C942.396 790.867 942.077 790.999 941.744 791H1.25613C0.923108 791 0.603718 790.868 0.368234 790.632C0.13275 790.397 0.000457764 790.077 0.000457764 789.744C0.000457764 789.411 0.13275 789.092 0.368234 788.856C0.603718 788.621 0.923108 788.488 1.25613 788.488H941.744C942.077 788.489 942.396 788.622 942.631 788.857C942.867 789.092 942.999 789.411 943 789.744Z" fill="#3F3D56"/>
<path d="M605.795 303.935C608.418 303.935 610.544 301.808 610.544 299.186C610.544 296.563 608.418 294.437 605.795 294.437C603.173 294.437 601.047 296.563 601.047 299.186C601.047 301.808 603.173 303.935 605.795 303.935Z" fill="#3F3D56"/>
<path d="M546.337 335.765L610.352 295.542C610.931 295.178 611.578 294.936 612.253 294.829C612.929 294.722 613.619 294.753 614.282 294.92C614.945 295.087 615.568 295.387 616.112 295.802C616.656 296.216 617.11 296.737 617.447 297.332C617.784 297.927 617.997 298.584 618.074 299.264C618.15 299.944 618.087 300.632 617.89 301.287C617.693 301.942 617.365 302.55 616.926 303.075C616.487 303.6 615.947 304.03 615.337 304.34L547.944 338.601C547.57 338.791 547.136 338.83 546.734 338.709C546.333 338.588 545.993 338.316 545.786 337.951C545.579 337.586 545.521 337.155 545.623 336.748C545.726 336.341 545.981 335.989 546.337 335.765Z" fill="#E4E4E4"/>
<path d="M417.91 422.376C417.405 421.626 417.142 420.74 417.155 419.836C417.168 418.933 417.457 418.055 417.983 417.32C419.066 415.87 420.508 414.726 422.168 414.001C425.593 412.258 429.282 411.092 433.088 410.55C435.979 410.139 439.135 410.008 441.378 408.138C443.606 406.279 444.849 402.804 447.736 402.514C450.527 402.234 452.672 405.289 455.471 405.479C458.921 405.713 461.18 401.675 464.536 400.846C466.784 400.292 469.094 401.27 471.202 402.227L483.85 407.966L490.334 410.907C492.598 411.935 495.152 413.319 495.58 415.769C496.167 419.135 492.424 421.51 489.223 422.706C466.367 431.142 441.252 431.145 418.394 422.714" fill="#5B362E"/>
<path d="M436.965 484.396C528.751 484.396 603.157 473.765 603.157 460.651C603.157 447.537 528.751 436.906 436.965 436.906C345.18 436.906 270.773 447.537 270.773 460.651C270.773 473.765 345.18 484.396 436.965 484.396Z" fill="#3F3D56"/>
<path d="M774.098 607.869H660.137C654.892 607.869 650.641 612.121 650.641 617.367C650.641 622.612 654.892 626.865 660.137 626.865H774.098C779.343 626.865 783.594 622.612 783.594 617.367C783.594 612.121 779.343 607.869 774.098 607.869Z" fill="#3F3D56"/>
<path d="M829.326 438.531L791.688 617.356L801.49 663.126L819.998 749.504V788.33C820 788.383 819.996 788.436 819.988 788.488C819.981 789.346 819.824 790.196 819.523 791H804.646C804.345 790.196 804.187 789.346 804.181 788.488C804.172 788.436 804.169 788.383 804.171 788.33V751.172L787.372 672.772L783.974 656.942L777.4 626.263L775.501 617.377V617.367L777.379 608.46L778.825 601.59L813.836 435.281C814.049 434.263 814.46 433.296 815.046 432.437C815.632 431.578 816.382 430.843 817.252 430.274C818.122 429.705 819.096 429.313 820.118 429.12C821.14 428.928 822.19 428.939 823.208 429.152C824.225 429.366 825.191 429.778 826.049 430.365C826.908 430.952 827.642 431.702 828.21 432.573C828.778 433.444 829.169 434.419 829.361 435.441C829.552 436.463 829.541 437.513 829.326 438.531Z" fill="#3F3D56"/>
<path d="M668.051 617.367V788.33C668.053 788.383 668.05 788.436 668.041 788.488C668.034 789.346 667.877 790.196 667.576 791H652.699C652.398 790.196 652.24 789.346 652.234 788.488C652.225 788.436 652.222 788.383 652.224 788.33V617.367C652.224 615.268 653.057 613.255 654.541 611.77C656.026 610.286 658.039 609.452 660.137 609.452C662.236 609.452 664.249 610.286 665.733 611.77C667.218 613.255 668.051 615.268 668.051 617.367Z" fill="#3F3D56"/>
<path d="M679.131 588.873H755.104C762.66 588.873 769.907 591.875 775.25 597.219C780.593 602.562 783.594 609.81 783.594 617.367H650.641C650.641 609.81 653.642 602.562 658.985 597.219C664.328 591.875 671.575 588.873 679.131 588.873Z" fill="#3F3D56"/>
<path d="M793.091 672.772H660.137C658.039 672.772 656.026 671.938 654.541 670.453C653.057 668.969 652.224 666.956 652.224 664.857C652.224 662.757 653.057 660.744 654.541 659.26C656.026 657.776 658.039 656.942 660.137 656.942H793.091C795.19 656.942 797.203 657.776 798.687 659.26C800.171 660.744 801.005 662.757 801.005 664.857C801.005 666.956 800.171 668.969 798.687 670.453C797.203 671.938 795.19 672.772 793.091 672.772Z" fill="#3F3D56"/>
<path d="M174.655 627.153H308.76C314.005 627.153 318.257 622.9 318.257 617.655V614.777C318.257 609.531 314.005 605.279 308.76 605.279H174.655C169.41 605.279 165.159 609.531 165.159 614.777V617.655C165.159 622.9 169.41 627.153 174.655 627.153Z" fill="#3F3D56"/>
<path d="M173.274 616.343L170.847 626.348L161.941 662.989L158.101 678.819L140.268 752.248V784.109C140.272 785.669 139.809 787.194 138.938 788.488C138.254 789.535 137.322 790.397 136.227 791H128.481C127.385 790.397 126.454 789.535 125.77 788.488C124.898 787.194 124.435 785.669 124.44 784.109V750.349L144.256 668.772L157.045 616.09L113.677 410.037C113.463 409.02 113.45 407.971 113.642 406.949C113.833 405.927 114.223 404.953 114.791 404.083C115.359 403.212 116.092 402.462 116.95 401.875C117.808 401.288 118.773 400.876 119.79 400.663C120.807 400.449 121.857 400.438 122.878 400.631C123.899 400.823 124.873 401.214 125.743 401.783C126.612 402.352 127.362 403.087 127.948 403.945C128.533 404.804 128.944 405.769 129.157 406.787L169.243 597.2L171.09 605.98L173.242 616.217L173.274 616.343Z" fill="#3F3D56"/>
<path d="M315.239 616.217V784.109C315.244 785.669 314.781 787.194 313.909 788.488C313.224 789.535 312.293 790.397 311.198 791H303.442C302.351 790.394 301.424 789.532 300.741 788.488C299.87 787.194 299.407 785.669 299.411 784.109V616.217C299.411 614.117 300.245 612.104 301.729 610.62C303.213 609.135 305.226 608.302 307.325 608.302C309.424 608.302 311.437 609.135 312.921 610.62C314.405 612.104 315.239 614.117 315.239 616.217Z" fill="#3F3D56"/>
<path d="M318.257 616.216H165.159V611.898C165.159 608.156 165.896 604.451 167.327 600.994C168.759 597.537 170.858 594.396 173.503 591.75C176.149 589.104 179.289 587.005 182.746 585.573C186.203 584.141 189.907 583.404 193.649 583.404H289.767C297.323 583.404 304.569 586.406 309.912 591.75C315.255 597.094 318.257 604.341 318.257 611.898L318.257 616.216Z" fill="#3F3D56"/>
<path d="M307.321 678.815H154.223C152.124 678.815 150.111 677.982 148.627 676.497C147.143 675.013 146.309 673 146.309 670.9C146.309 668.801 147.143 666.788 148.627 665.304C150.111 663.819 152.124 662.986 154.223 662.986H307.321C309.42 662.986 311.433 663.819 312.917 665.304C314.401 666.788 315.235 668.801 315.235 670.9C315.235 673 314.401 675.013 312.917 676.497C311.433 677.982 309.42 678.815 307.321 678.815Z" fill="#3F3D56"/>
<path d="M504.077 747.859L487.444 739.903L510.292 670.369L534.842 682.11L504.077 747.859Z" fill="#9E616A"/>
<path d="M616.801 741.561L598.916 745.974L573.002 677.54L599.4 671.025L616.801 741.561Z" fill="#9E616A"/>
<path d="M548.249 445.63C550.622 449.484 554.406 452.257 558.795 453.358C563.184 454.46 567.829 453.801 571.739 451.524C572.526 451.048 573.271 450.508 573.968 449.909L626.555 480.091L624.271 449.108L574.684 425.197C571.986 422.486 568.465 420.747 564.672 420.253C560.88 419.759 557.031 420.538 553.728 422.467C551.827 423.609 550.173 425.119 548.865 426.91C547.556 428.701 546.619 430.735 546.108 432.894C545.598 435.052 545.524 437.291 545.892 439.478C546.259 441.666 547.061 443.757 548.249 445.63Z" fill="#9E616A"/>
<path d="M603.947 468.726L613.242 474.391L654.99 499.852C657.732 501.568 660.785 502.727 663.975 503.262C667.166 503.797 670.43 503.697 673.582 502.97C676.734 502.242 679.711 500.901 682.344 499.021C684.977 497.142 687.214 494.762 688.927 492.018C692.018 486.925 693.111 480.866 691.997 475.013L673.442 382.3C672.756 378.661 671.293 375.212 669.152 372.19C667.012 369.168 664.244 366.644 661.038 364.79C657.832 362.937 654.263 361.797 650.576 361.45C646.89 361.103 643.171 361.556 639.676 362.778C633.8 364.843 628.932 369.069 626.061 374.597C623.191 380.125 622.533 386.538 624.224 392.533L643.626 458.33L613.885 444.463L603.947 468.726Z" fill="#E6E6E6"/>
<path d="M581.968 722.383L553.348 664.974L553.351 664.843L556.177 559.546C556.212 558.61 556.288 557.669 556.402 556.743C556.901 552.521 558.236 548.441 560.328 544.74C562.42 541.039 565.228 537.792 568.588 535.187C571.806 532.669 575.493 530.817 579.434 529.739C583.375 528.661 587.491 528.379 591.542 528.909L673.382 539.501L676.221 527.894L676.749 527.702L755.165 498.959L755.617 499.695C765.886 516.408 773.066 549.791 775.022 559.625L775.05 559.766C775.091 559.974 775.116 560.099 775.124 560.136C779.161 576.917 762.481 604.714 745.865 608.892C710.864 617.815 679.561 610.855 643.316 602.795C630.319 599.903 616.886 596.916 602.09 594.333L602.53 603.042C602.891 609.745 604.283 616.353 606.659 622.631C609.296 630.359 611.38 636.462 606.974 649.188L604.843 655.345C605.948 658.401 606.329 661.672 605.954 664.901C605.58 668.129 604.461 671.227 602.685 673.949L602.257 674.604L621.131 722.372L581.968 722.383Z" fill="#2F2E41"/>
<path d="M534.943 696.995L500.813 693.822L512.905 655.147C515.4 629.895 521.687 605.162 531.555 581.784L548.047 542.693C548.086 541.823 548.159 540.947 548.265 540.089C548.764 535.867 550.098 531.787 552.191 528.086C554.283 524.385 557.091 521.138 560.451 518.534C563.669 516.017 567.356 514.166 571.297 513.088C575.237 512.01 579.353 511.727 583.404 512.256L665.124 522.833L668.683 492.956L747.12 482.458L747.479 483.042C761.189 505.352 769.893 522.818 774.871 538.008C775.121 538.782 775.343 539.573 775.532 540.36C779.596 557.254 769.451 574.382 752.915 578.54C710.777 589.285 660.104 588.987 593.481 577.597L561.237 654.34C558.155 661.67 554.34 668.669 549.848 675.231L534.943 696.995Z" fill="#2F2E41"/>
<path d="M653.994 309.569C675.829 309.569 693.529 291.472 693.529 269.147C693.529 246.823 675.829 228.726 653.994 228.726C632.159 228.726 614.459 246.823 614.459 269.147C614.459 291.472 632.159 309.569 653.994 309.569Z" fill="#9E616A"/>
<path d="M665.41 524.244L659.737 503.919L658.342 493.894L650.189 494.166L634.187 457.225L627.972 447.485C626.704 446.15 625.556 444.867 624.527 443.635C618.051 436.314 612.859 427.951 609.169 418.9C606.583 412.397 605.065 405.519 604.673 398.532C603.513 377.892 612.212 356.055 631.269 331.777C630.957 330.918 630.749 330.024 630.649 329.115C630.308 326.166 631.145 323.202 632.979 320.867C634.812 318.532 637.493 317.016 640.439 316.648L658.82 314.584C660.249 314.422 661.696 314.546 663.077 314.948C664.458 315.351 665.745 316.024 666.864 316.929C668.031 317.865 669.001 319.024 669.716 320.339C670.431 321.653 670.878 323.097 671.029 324.586C671.276 326.889 670.823 329.213 669.729 331.255C679.099 332.445 687.926 336.312 695.152 342.393C702.378 348.475 707.697 356.512 710.47 365.541C721.468 386.076 730.235 407.73 736.619 430.134C737.877 434.522 737.317 439.043 736.775 443.416C736.274 447.454 735.757 451.631 736.627 455.793C737.512 460.027 739.642 464.274 741.897 468.771C744.479 473.921 747.15 479.246 747.872 484.674L747.922 485.055L665.41 524.244Z" fill="#E4E4E4"/>
<path opacity="0.2" d="M609.657 418.7C613.331 427.699 618.494 436.014 624.932 443.295C626.034 444.612 627.198 445.905 628.417 447.201L634.671 457.015C657.725 439.733 676.404 371.684 676.404 371.684L650.392 366.623L609.657 418.7Z" fill="black"/>
<path d="M593.909 313.345C596.187 317.258 596.848 321.906 595.752 326.299C594.656 330.692 591.889 334.484 588.04 336.868C587.25 337.34 586.422 337.747 585.566 338.082L587.407 398.695L561.162 382.171L563.437 327.146C562.32 323.484 562.447 319.556 563.798 315.974C565.148 312.392 567.646 309.357 570.902 307.345C572.799 306.197 574.906 305.442 577.099 305.123C579.293 304.803 581.528 304.927 583.672 305.487C585.817 306.046 587.828 307.03 589.586 308.379C591.345 309.729 592.814 311.418 593.909 313.345Z" fill="#9E616A"/>
<path d="M589.714 375.815L560.852 379.92L562.093 439.695C562.165 443.96 563.326 448.135 565.466 451.824C567.606 455.513 570.653 458.593 574.319 460.773C578.797 463.408 584.01 464.516 589.172 463.929C594.335 463.343 599.167 461.095 602.94 457.523L671.079 391.974C675.873 387.425 678.742 381.212 679.097 374.613C679.451 368.013 677.263 361.529 672.983 356.493C670.865 353.986 668.265 351.93 665.337 350.447C662.41 348.964 659.214 348.084 655.94 347.86C652.666 347.635 649.38 348.071 646.278 349.141C643.175 350.212 640.319 351.894 637.879 354.089C637.206 354.691 636.565 355.329 635.961 356L590.968 407.767L589.714 375.815Z" fill="#E6E6E6"/>
<path d="M348.322 765.712L368.807 765.711L378.553 686.684L348.318 686.685L348.322 765.712Z" fill="#FFB6B6"/>
<path d="M232.206 310.742C254.787 310.742 273.092 292.434 273.092 269.85C273.092 247.266 254.787 228.958 232.206 228.958C209.624 228.958 191.319 247.266 191.319 269.85C191.319 292.434 209.624 310.742 232.206 310.742Z" fill="#FFB6B6"/>
<path d="M375.493 741.368H346.484L339.088 731.453L337.086 722.112L335.363 720.444C333.026 718.2 331.514 715.233 331.074 712.022C330.634 708.812 331.291 705.547 332.938 702.757L311.914 604.652C306.408 604.168 244.309 598.615 201.142 590.974C190.095 589.019 181.469 583.648 175.506 575.011C160.852 553.787 167.129 519.447 167.194 519.103L167.266 518.72L167.654 518.676L268.482 507.358L268.617 507.422C271.963 509.007 350.712 546.397 363.581 559.268C369.392 565.08 382.357 599.61 385.26 636.321C385.779 642.897 383.908 649.595 382.099 656.072C380.406 662.133 378.655 668.399 379.001 674.324C379.535 683.465 380.041 693.053 380.505 702.823C380.579 704.38 381.752 705.991 382.886 707.549C384.07 709.177 385.189 710.714 385.261 712.323C385.95 727.925 375.754 741.037 375.651 741.167L375.493 741.368Z" fill="#2F2E41"/>
<path d="M382.098 378.766C379.902 378.166 377.601 378.054 375.356 378.44C373.112 378.825 370.98 379.697 369.109 380.996C367.239 382.295 365.675 383.988 364.53 385.956C363.384 387.924 362.684 390.12 362.479 392.388L328.507 403.007L329.924 425.228L377.689 409.558C381.521 409.651 385.255 408.334 388.181 405.857C391.108 403.381 393.025 399.917 393.568 396.121C394.112 392.326 393.244 388.463 391.13 385.264C389.016 382.066 385.803 379.754 382.098 378.766Z" fill="#FFB6B6"/>
<path d="M359.933 415.539L334.543 425.15L333.893 426.409C332.337 429.429 329.644 431.708 326.408 432.742C323.172 433.777 319.658 433.484 316.638 431.927L259.569 453.53C259.569 453.53 234.083 428.022 215.938 405.258L222.122 367.216C223.554 358.389 226.599 349.902 231.103 342.177C268.315 350.338 289.676 402.365 289.676 402.365L356.742 389.567L359.933 415.539Z" fill="#5B362E"/>
<path d="M226.395 308.557C216.159 311.321 204.875 307.646 196.886 300.673C188.898 293.7 183.901 283.82 181.022 273.614C178.913 266.139 177.913 257.842 181.241 250.825C184.569 243.808 193.524 239.074 200.434 242.619C196.171 237.652 198.301 229.438 203.279 225.189C208.257 220.94 215.092 219.722 221.603 219.056C231.051 218.09 240.811 217.982 249.801 221.043C258.792 224.104 266.961 230.797 269.775 239.87C272.649 241.208 275.885 241.555 278.978 240.857C282.07 240.159 284.843 238.454 286.864 236.011C287.384 238.817 286.966 241.717 285.673 244.261C284.38 246.806 282.285 248.853 279.712 250.087L293.487 245.62C295.857 250.636 291.705 256.843 286.397 258.449C281.088 260.055 275.358 258.299 270.32 255.979C265.283 253.659 260.401 250.725 254.929 249.82C249.457 248.915 243.03 250.674 240.499 255.609C239.173 258.194 239.104 261.222 238.334 264.023C237.564 266.825 235.615 269.729 232.719 269.959C230.889 270.103 229.098 269.129 227.274 269.328C225.012 269.575 223.281 271.624 222.678 273.819C222.224 276.055 222.218 278.359 222.662 280.598L226.161 307.348" fill="#2F2E41"/>
<path d="M175.741 579.898C175.733 579.898 175.725 579.897 175.718 579.895L175.394 579.84L175.301 579.526C174.125 575.571 172.629 571.523 171.183 567.609C169.052 562.187 167.253 556.642 165.796 551.002C164.649 545.61 163.854 540.149 163.415 534.654C163.012 530.665 162.594 526.539 161.885 522.478C161.57 520.675 162.764 518.967 163.919 517.316C164.989 515.785 166.001 514.338 165.788 512.97C165.571 511.571 164.02 510.035 162.52 508.549C160.875 506.92 159.175 505.235 158.934 503.463C155.657 479.274 154.131 454.881 154.369 430.472C154.708 396.701 156.234 373.682 158.905 362.054C166.086 330.788 199.265 325.082 204.458 324.378C205.011 322.904 205.861 321.561 206.956 320.43C208.051 319.299 209.367 318.406 210.822 317.806C212.276 317.206 213.839 316.912 215.413 316.942C216.986 316.972 218.536 317.326 219.967 317.981L243.541 328.774C248.323 330.971 252.602 334.128 256.112 338.049C259.622 341.97 262.289 346.571 263.946 351.566L267.448 362.243L269.202 433.921L259.481 484.396L278.475 512.889C177.247 568.473 176.067 579.898 175.741 579.898Z" fill="#5B362E"/>
<path d="M337.298 757.749L343.958 757.749L369.962 747.172L383.9 757.747H383.901C391.778 757.748 399.331 760.877 404.901 766.447C410.47 772.017 413.599 779.572 413.6 787.449V788.414L337.299 788.417L337.298 757.749Z" fill="#2F2E41"/>
<path d="M390.604 429.916C388.641 428.763 386.448 428.055 384.181 427.841C381.914 427.627 379.628 427.913 377.483 428.679C375.339 429.444 373.388 430.671 371.769 432.272C370.15 433.873 368.901 435.81 368.111 437.946L332.546 439.333L327.753 455.902L378.315 458.49C381.991 459.58 385.938 459.283 389.41 457.656C392.881 456.029 395.635 453.185 397.15 449.662C398.665 446.14 398.835 442.185 397.629 438.545C396.422 434.906 393.923 431.835 390.604 429.916Z" fill="#FFB6B6"/>
<path d="M361.39 460.277L324.857 459.822L320.232 459.759L245.904 458.822C245.904 458.822 225.719 439.564 208.144 419.735L210.607 401.915C213.01 384.426 221.684 368.405 235.016 356.835C260.189 373.658 274.787 406.956 274.787 406.956L299.263 417.91C316.489 418.681 333.274 423.597 348.194 432.242L356.243 436.906L361.39 460.277Z" fill="#5B362E"/>
<path d="M629.852 775.269L617.696 778.27L612.694 767.327L609.97 780.177L577.73 788.134C576.184 788.516 574.557 788.393 573.087 787.785C571.616 787.176 570.378 786.113 569.554 784.751C568.73 783.389 568.363 781.799 568.506 780.214C568.65 778.628 569.296 777.13 570.351 775.938L591.709 751.8L588.846 740.196L616.325 735.129L629.852 775.269Z" fill="#2F2E41"/>
<path d="M501.075 779.021L489.483 774.289L491.881 762.499L482.115 771.281L451.37 758.73C449.896 758.128 448.654 757.071 447.823 755.713C446.992 754.355 446.618 752.767 446.753 751.181C446.889 749.595 447.528 748.094 448.577 746.897C449.627 745.699 451.031 744.869 452.585 744.527L484.058 737.591L488.575 726.525L513.77 738.609L501.075 779.021Z" fill="#2F2E41"/>
<path d="M460.707 456.429H451.21C440.999 456.418 431.21 452.356 423.989 445.134C416.769 437.913 412.708 428.122 412.696 417.91V417.382H499.221V417.91C499.21 428.122 495.148 437.913 487.928 445.134C480.708 452.356 470.918 456.418 460.707 456.429Z" fill="#E4E4E4"/>
<path d="M451.21 403.663C451.21 406.286 446.462 408.412 446.462 408.412C446.462 408.412 441.714 406.286 441.714 403.663C441.714 401.04 446.462 398.914 446.462 398.914C446.462 398.914 451.21 401.04 451.21 403.663Z" fill="#3F3D56"/>
<path d="M479.7 403.663C479.7 406.286 474.952 408.412 474.952 408.412C474.952 408.412 470.204 406.286 470.204 403.663C470.204 401.04 474.952 398.914 474.952 398.914C474.952 398.914 479.7 401.04 479.7 403.663Z" fill="#3F3D56"/>
<path d="M460.707 413.161C460.707 415.784 455.959 417.91 455.959 417.91C455.959 417.91 451.21 415.784 451.21 413.161C451.21 410.538 455.959 408.412 455.959 408.412C455.959 408.412 460.707 410.538 460.707 413.161Z" fill="#3F3D56"/>
<path d="M427.469 393.637C430.091 393.637 432.217 391.511 432.217 388.888C432.217 386.266 430.091 384.139 427.469 384.139C424.846 384.139 422.72 386.266 422.72 388.888C422.72 391.511 424.846 393.637 427.469 393.637Z" fill="#3F3D56"/>
<path d="M358.411 378.683L433.301 389.027C433.978 389.12 434.63 389.35 435.216 389.703C435.802 390.055 436.311 390.523 436.711 391.077C437.112 391.631 437.396 392.261 437.546 392.929C437.696 393.596 437.71 394.287 437.585 394.96C437.461 395.632 437.202 396.273 436.823 396.842C436.445 397.412 435.955 397.899 435.383 398.274C434.811 398.649 434.169 398.904 433.495 399.024C432.822 399.144 432.131 399.126 431.465 398.971L357.82 381.888C357.411 381.793 357.054 381.544 356.824 381.193C356.594 380.842 356.508 380.415 356.584 380.003C356.66 379.59 356.892 379.222 357.233 378.976C357.573 378.73 357.995 378.625 358.411 378.683Z" fill="#E4E4E4"/>
<path d="M449.415 142.694V0H439.918V142.694C426.943 143.878 414.878 149.87 406.093 159.493C397.308 169.117 392.436 181.677 392.435 194.708V208.955H425.673C425.673 213.993 427.674 218.825 431.236 222.387C434.798 225.949 439.629 227.951 444.667 227.951C449.704 227.951 454.535 225.949 458.097 222.387C461.659 218.825 463.66 213.993 463.66 208.955H496.898V194.708C496.897 181.677 492.025 169.117 483.24 159.493C474.455 149.87 462.39 143.878 449.415 142.694Z" fill="#F0F0F0"/>
<path d="M571.685 107.02V0H564.562V107.02C554.831 107.909 545.782 112.402 539.193 119.62C532.605 126.838 528.951 136.258 528.95 146.031V156.716H553.879C553.879 160.495 555.379 164.118 558.051 166.79C560.722 169.462 564.346 170.963 568.124 170.963C571.902 170.963 575.525 169.462 578.196 166.79C580.868 164.118 582.369 160.495 582.369 156.716H607.297V146.031C607.296 136.258 603.643 126.838 597.054 119.62C590.465 112.402 581.416 107.909 571.685 107.02Z" fill="#F0F0F0"/>
<path d="M331.102 107.02V0H323.98V107.02C314.248 107.909 305.2 112.402 298.611 119.62C292.022 126.838 288.368 136.258 288.367 146.031V156.716H313.296C313.296 160.495 314.797 164.118 317.468 166.79C320.14 169.462 323.763 170.963 327.541 170.963C331.319 170.963 334.942 169.462 337.614 166.79C340.285 164.118 341.786 160.495 341.786 156.716H366.715V146.031C366.714 136.258 363.06 126.838 356.471 119.62C349.882 112.402 340.834 107.909 331.102 107.02Z" fill="#F0F0F0"/>
<path d="M759.786 251.617C753.066 243.779 749.871 233.38 744.499 224.48C739.126 215.58 729.778 207.614 719.901 209.685C713.093 211.113 707.831 217.121 705.168 223.82C702.504 230.519 702.005 237.906 701.538 245.143C701.703 230.271 691.906 215.853 678.41 211.107C664.915 206.362 648.765 211.655 640.284 223.603C636.584 220.173 631.753 218.22 626.709 218.114C621.664 218.008 616.756 219.757 612.915 223.029C605.329 229.809 603.651 242.714 609.229 251.363C614.807 260.011 626.889 263.233 635.754 258.436L638.888 261.32C637.124 267.491 640.545 274.78 646.296 277.103C650.959 278.987 657.543 278.673 659.288 283.568C660.507 286.988 658.228 290.638 655.803 293.266C653.379 295.894 650.5 298.608 650.209 302.245C649.769 307.732 655.439 311.576 660.593 312.733C673.02 315.525 686.809 309.769 693.972 298.801C694.11 298.589 694.26 298.377 694.422 298.165C698.441 293.025 701.369 287.12 703.029 280.81C704.689 274.5 705.045 267.918 704.075 261.466C703.672 258.931 704.078 257.045 705.826 256.445C713.379 253.85 734.543 259.296 740.948 264.219C747.353 269.141 752.482 275.655 758.652 280.895C764.821 286.136 772.683 290.178 780.517 288.751C786.791 287.608 792.128 283.052 795.718 277.558C799.308 272.063 801.374 265.658 803.224 259.293C789.351 267.308 770.364 263.953 759.786 251.617Z" fill="#2F2E41"/>
</g>
<defs>
<clipPath id="clip0_1_1386">
<rect width="943" height="791" fill="white"/>
</clipPath>
</defs>
</svg>
