<svg width="1728" height="981" viewBox="0 0 1728 981" fill="none" xmlns="http://www.w3.org/2000/svg">
<path fill-rule="evenodd" clip-rule="evenodd" d="M-298 783.598C-298 779.166 -295.556 775.094 -291.644 773.009L-172.046 709.264C-46.0916 642.132 200.092 507.868 452 507.868C703.908 507.868 950.092 642.132 1202 575C1453.91 507.868 1700.09 239.34 1826.05 116.264L1931.25 4.12087C1938.69 -3.81158 1952 1.45446 1952 12.331V1156C1952 1162.63 1946.63 1168 1940 1168H1826.05C1700.09 1168 1453.91 1168 1202 1168C950.092 1168 703.908 1168 452 1168C200.092 1168 -46.0916 1168 -172.046 1168H-286C-292.627 1168 -298 1162.63 -298 1156V783.598Z" fill="#5B362E" fill-opacity="0.34"/>
</svg>
